<svg width="23" height="23" viewBox="0 0 23 23" fill="none" xmlns="http://www.w3.org/2000/svg">
<path d="M11.3743 12.2684C11.097 12.2652 10.8254 12.3452 10.5959 12.4976C10.3665 12.6499 10.1903 12.8674 10.0911 13.1206C9.99189 13.3739 9.97439 13.6508 10.041 13.9141C10.1075 14.1773 10.255 14.4143 10.4635 14.5932V15.8313C10.4635 16.0676 10.5594 16.2941 10.7302 16.4612C10.9011 16.6282 11.1327 16.7221 11.3743 16.7221C11.6159 16.7221 11.8476 16.6282 12.0184 16.4612C12.1892 16.2941 12.2852 16.0676 12.2852 15.8313V14.5932C12.4936 14.4143 12.6411 14.1773 12.7077 13.9141C12.7742 13.6508 12.7567 13.3739 12.6575 13.1206C12.5583 12.8674 12.3821 12.6499 12.1527 12.4976C11.9233 12.3452 11.6516 12.2652 11.3743 12.2684ZM15.9285 8.7054V6.92392C15.9285 5.74272 15.4487 4.60991 14.5946 3.77467C13.7406 2.93944 12.5822 2.47021 11.3743 2.47021C10.1664 2.47021 9.00806 2.93944 8.15397 3.77467C7.29989 4.60991 6.82007 5.74272 6.82007 6.92392V8.7054C6.09535 8.7054 5.40032 8.98694 4.88787 9.48808C4.37542 9.98921 4.08752 10.6689 4.08752 11.3776V17.6128C4.08752 18.3215 4.37542 19.0012 4.88787 19.5024C5.40032 20.0035 6.09535 20.285 6.82007 20.285H15.9285C16.6533 20.285 17.3483 20.0035 17.8607 19.5024C18.3732 19.0012 18.6611 18.3215 18.6611 17.6128V11.3776C18.6611 10.6689 18.3732 9.98921 17.8607 9.48808C17.3483 8.98694 16.6533 8.7054 15.9285 8.7054ZM8.64176 6.92392C8.64176 6.2152 8.92966 5.53551 9.44211 5.03437C9.95456 4.53323 10.6496 4.2517 11.3743 4.2517C12.099 4.2517 12.7941 4.53323 13.3065 5.03437C13.819 5.53551 14.1069 6.2152 14.1069 6.92392V8.7054H8.64176V6.92392ZM16.8394 17.6128C16.8394 17.849 16.7434 18.0756 16.5726 18.2427C16.4018 18.4097 16.1701 18.5035 15.9285 18.5035H6.82007C6.5785 18.5035 6.34682 18.4097 6.176 18.2427C6.00518 18.0756 5.90922 17.849 5.90922 17.6128V11.3776C5.90922 11.1414 6.00518 10.9148 6.176 10.7478C6.34682 10.5807 6.5785 10.4869 6.82007 10.4869H15.9285C16.1701 10.4869 16.4018 10.5807 16.5726 10.7478C16.7434 10.9148 16.8394 11.1414 16.8394 11.3776V17.6128Z" fill="white"/>
</svg>
