<svg width="28" height="28" viewBox="0 0 28 28" fill="none" xmlns="http://www.w3.org/2000/svg">
<path d="M9.46722 2.64746C5.56929 2.64746 2.3894 5.82735 2.3894 9.72528V19.961C2.3894 23.8516 5.56929 27.0315 9.46722 27.0315H19.7029C23.5935 27.0315 26.7734 23.8516 26.7734 19.9537V9.72528C26.7734 5.82735 23.5935 2.64746 19.6956 2.64746H9.46722ZM9.46722 4.52316H19.6956C22.5824 4.52316 24.8977 6.83847 24.8977 9.72528V19.9537C24.8977 22.8405 22.5824 25.1558 19.7029 25.1558H9.46722C6.58041 25.1558 4.2651 22.8405 4.2651 19.961V9.72528C4.2651 6.83847 6.58041 4.52316 9.46722 4.52316ZM22.0842 6.39885C21.564 6.39885 21.1463 6.81648 21.1463 7.3367C21.1463 7.85691 21.564 8.27454 22.0842 8.27454C22.6044 8.27454 23.022 7.85691 23.022 7.3367C23.022 6.81648 22.6044 6.39885 22.0842 6.39885ZM14.5814 8.27454C10.9692 8.27454 8.01649 11.2273 8.01649 14.8395C8.01649 18.4517 10.9692 21.4044 14.5814 21.4044C18.1936 21.4044 21.1463 18.4517 21.1463 14.8395C21.1463 11.2273 18.1936 8.27454 14.5814 8.27454ZM14.5814 10.1502C17.1825 10.1502 19.2707 12.2384 19.2707 14.8395C19.2707 17.4405 17.1825 19.5287 14.5814 19.5287C11.9804 19.5287 9.89218 17.4405 9.89218 14.8395C9.89218 12.2384 11.9804 10.1502 14.5814 10.1502Z" fill="white"/>
</svg>
