<svg width="28" height="28" viewBox="0 0 28 28" fill="none" xmlns="http://www.w3.org/2000/svg">
<path d="M15.5193 4.47095C11.6946 4.47095 8.30957 4.8666 6.2507 5.17433C4.5655 5.42345 3.22468 6.7423 2.91694 8.43482C2.65317 9.91486 2.3894 12.0763 2.3894 14.7873C2.3894 17.4982 2.65317 19.6597 2.91694 21.1397C3.22468 22.8322 4.5655 24.1438 6.2507 24.4002C8.31689 24.7079 11.7166 25.1036 15.5193 25.1036C19.3219 25.1036 22.7143 24.7079 24.7805 24.4002H24.7878C26.473 24.1511 27.8139 22.8322 28.1216 21.1397C28.3854 19.6523 28.6491 17.4909 28.6491 14.7873C28.6491 12.0763 28.3854 9.91486 28.1143 8.43482C27.8139 6.7423 26.473 5.42345 24.7878 5.17433C22.729 4.8666 19.3439 4.47095 15.5193 4.47095ZM15.5193 6.34664C19.212 6.34664 22.5165 6.72764 24.5094 7.02805C25.3886 7.15993 26.0994 7.84866 26.2679 8.76453C26.517 10.1493 26.7734 12.2009 26.7734 14.7873C26.7734 17.3737 26.517 19.4252 26.2752 20.8027C26.1067 21.7259 25.396 22.4146 24.5094 22.5465C22.5018 22.8396 19.1901 23.2279 15.5193 23.2279C11.8485 23.2279 8.52937 22.8396 6.52912 22.5465C5.64989 22.4146 4.93185 21.7259 4.76333 20.8027C4.52154 19.4179 4.2651 17.3737 4.2651 14.7873C4.2651 12.1935 4.52154 10.1493 4.76333 8.76453C4.93185 7.84866 5.64256 7.15993 6.52179 7.03537H6.52912C8.52205 6.73497 11.8265 6.34664 15.5193 6.34664ZM11.7679 10.098V19.4765L21.1463 14.7873L11.7679 10.098Z" fill="white"/>
</svg>
