<svg width="28" height="28" viewBox="0 0 28 28" fill="none" xmlns="http://www.w3.org/2000/svg">
<path d="M7.07864 1.99829C4.49959 1.99829 2.3894 4.10848 2.3894 6.68753V21.6931C2.3894 24.2721 4.49959 26.3823 7.07864 26.3823H22.0842C24.6632 26.3823 26.7734 24.2721 26.7734 21.6931V6.68753C26.7734 4.10848 24.6632 1.99829 22.0842 1.99829H7.07864ZM7.07864 3.87399H22.0842C23.6504 3.87399 24.8977 5.12129 24.8977 6.68753V21.6931C24.8977 23.2593 23.6504 24.5066 22.0842 24.5066H19.0911V16.9416H21.7105L22.1025 13.9229H19.0911V11.9996C19.0911 11.1255 19.3345 10.5305 20.5968 10.5305H22.2088V7.83053C21.9293 7.79301 20.9728 7.7133 19.8605 7.7133C17.5384 7.7133 15.9516 9.11819 15.9516 11.6991V13.9229L13.6436 13.9155V16.9342L15.9516 16.9416V24.5066H7.07864C5.51241 24.5066 4.2651 23.2593 4.2651 21.6931V6.68753C4.2651 5.12129 5.51241 3.87399 7.07864 3.87399Z" fill="white"/>
</svg>
