<svg width="28" height="28" viewBox="0 0 28 28" fill="none" xmlns="http://www.w3.org/2000/svg">
<path d="M5.68652 2.29688C3.87677 2.29688 2.3894 3.78424 2.3894 5.59399V23.3911C2.3894 25.1935 3.87677 26.6809 5.68652 26.6809H23.4836C25.2861 26.6809 26.7734 25.1935 26.7734 23.3911V5.59399C26.7734 3.78424 25.2861 2.29688 23.4836 2.29688H5.68652ZM5.68652 4.17257H23.4836C24.2749 4.17257 24.8977 4.79536 24.8977 5.59399V23.3911C24.8977 24.1824 24.2749 24.8052 23.4836 24.8052H5.68652C4.88789 24.8052 4.2651 24.1824 4.2651 23.3911V5.59399C4.2651 4.79536 4.88789 4.17257 5.68652 4.17257ZM8.01649 6.04826C6.98339 6.04826 6.14079 6.89086 6.14079 7.92396C6.14079 8.95706 6.98339 9.79965 8.01649 9.79965C9.04958 9.79965 9.89218 8.95706 9.89218 7.92396C9.89218 6.89086 9.04958 6.04826 8.01649 6.04826ZM6.14079 11.6753V22.9295H9.89218V11.6753H6.14079ZM11.7679 11.6753V22.9295H15.5193V17.9032C15.5193 16.3426 15.6658 14.9432 17.5415 14.9432C19.3879 14.9432 19.2707 16.621 19.2707 18.0058V22.9295H23.022V17.3757C23.022 14.1519 22.348 11.6753 18.6918 11.6753C16.9334 11.6753 16.0468 12.3787 15.5632 13.3166H15.5193V11.6753H11.7679Z" fill="white"/>
</svg>
