<svg width="28" height="28" viewBox="0 0 28 28" fill="none" xmlns="http://www.w3.org/2000/svg">
<path d="M14.5814 1.9458C7.84797 1.9458 2.3894 7.40436 2.3894 14.1378C2.3894 19.3033 5.60593 23.7141 10.1413 25.4946C10.0314 24.5274 9.93614 23.0474 10.1779 21.9923C10.4051 21.0471 11.6067 15.9329 11.6067 15.9329C11.6067 15.9329 11.2477 15.2002 11.2477 14.1232C11.2477 12.4306 12.2295 11.1631 13.4531 11.1631C14.4935 11.1631 14.9917 11.9471 14.9917 12.8776C14.9917 13.9253 14.325 15.4933 13.9879 16.9367C13.6949 18.153 14.5961 19.1421 15.7904 19.1421C17.9591 19.1421 19.6223 16.8561 19.6223 13.559C19.6223 10.6429 17.5268 8.59865 14.5301 8.59865C11.0645 8.59865 9.02761 11.1997 9.02761 13.8887C9.02761 14.9364 9.43058 16.0648 9.93614 16.6729C10.0314 16.7975 10.046 16.9001 10.0167 17.0246C9.92882 17.4056 9.71634 18.2409 9.6797 18.4094C9.62841 18.6292 9.50386 18.6805 9.26939 18.5706C7.74539 17.8599 6.79289 15.6325 6.79289 13.8447C6.79289 9.9981 9.59178 6.46652 14.8525 6.46652C19.0802 6.46652 22.3699 9.47789 22.3699 13.5077C22.3699 17.706 19.7176 21.0911 16.0395 21.0911C14.8012 21.0911 13.6436 20.4463 13.2479 19.6916C13.2479 19.6916 12.6325 22.0216 12.4859 22.5931C12.2075 23.6482 11.4675 24.9743 10.9692 25.7876C12.1122 26.1393 13.3212 26.3298 14.5814 26.3298C21.3149 26.3298 26.7734 20.8713 26.7734 14.1378C26.7734 7.40436 21.3149 1.9458 14.5814 1.9458Z" fill="white"/>
</svg>
