<svg width="178" height="65" viewBox="0 0 178 65" fill="none" xmlns="http://www.w3.org/2000/svg">
<path d="M35.0973 58.7525C34.5785 58.7547 34.0727 58.5944 33.6547 58.2954C33.2366 57.9964 32.9285 57.5746 32.7758 57.0922C32.6231 56.6097 32.6339 56.0923 32.8067 55.6163C32.9794 55.1403 33.3049 54.731 33.735 54.4488C36.3881 52.7015 38.2299 48.1645 38.2299 45.1861C38.2299 43.9997 38.3473 39.1549 38.4595 34.464C38.5207 31.9274 38.5769 29.5596 38.6024 28.1598V20.6146C38.6072 17.3491 37.5774 14.1615 35.6534 11.4859C35.3137 10.9732 35.1915 10.3524 35.3124 9.75385C35.4333 9.15532 35.7879 8.62566 36.3016 8.27612C36.8154 7.92659 37.4485 7.78437 38.0678 7.87936C38.687 7.97434 39.2444 8.29913 39.6228 8.7855C42.1147 12.2527 43.4457 16.3838 43.434 20.6146V28.2094C43.4034 29.6092 43.3472 31.9969 43.286 34.5533C43.1789 39.0209 43.0615 44.0345 43.0615 45.1662C43.0615 49.4898 40.587 55.5905 36.4289 58.3256C36.0382 58.593 35.5748 58.7416 35.0973 58.7525Z" fill="white"/>
<path d="M6.22516 13.203C5.79214 13.2028 5.3671 13.0895 4.99445 12.8749C4.62181 12.6603 4.31521 12.3523 4.10669 11.9831C3.89816 11.6139 3.79537 11.1969 3.80903 10.7758C3.82269 10.3547 3.95231 9.94492 4.18435 9.58921C7.17465 5.00297 11.8864 1.7331 17.317 0.475411C17.9421 0.333226 18.5997 0.438485 19.1451 0.768031C19.6905 1.09758 20.079 1.62441 20.2251 2.23265C20.3712 2.84088 20.2631 3.48068 19.9243 4.0113C19.5856 4.54193 19.0441 4.91991 18.419 5.06209C14.2221 6.03083 10.5816 8.55906 8.27617 12.1059C8.05697 12.4421 7.75403 12.7189 7.39546 12.9107C7.0369 13.1025 6.63434 13.203 6.22516 13.203Z" fill="white"/>
<path d="M3.33223 41.6365C2.69037 41.6352 2.07527 41.3862 1.62188 40.9441C1.1685 40.5021 0.913871 39.9031 0.913872 39.2786V20.6142C0.913229 19.8963 0.950693 19.1789 1.02612 18.4648C1.09377 17.8434 1.41238 17.2736 1.91183 16.8808C2.15914 16.6863 2.4434 16.541 2.74839 16.4534C3.05338 16.3658 3.37313 16.3374 3.68937 16.37C4.00561 16.4026 4.31216 16.4955 4.59151 16.6434C4.87086 16.7912 5.11755 16.9912 5.31748 17.2318C5.51741 17.4724 5.66667 17.749 5.75674 18.0457C5.84681 18.3424 5.87592 18.6535 5.84242 18.9612C5.78326 19.5186 5.75431 20.0787 5.75569 20.639V39.2786C5.75569 39.904 5.50036 40.5037 5.04587 40.9459C4.59139 41.3881 3.97497 41.6365 3.33223 41.6365Z" fill="white"/>
<path d="M31.3116 6.93877C30.8959 6.93843 30.487 6.83598 30.1228 6.64093C28.8034 5.92287 27.3864 5.38977 25.9137 5.05744C25.2892 4.91328 24.7492 4.53367 24.4124 4.00211C24.0756 3.47056 23.9696 2.8306 24.1178 2.22303C24.2659 1.61545 24.6561 1.09003 25.2024 0.762347C25.7488 0.434663 26.4065 0.33156 27.031 0.475718C28.9198 0.903864 30.7382 1.58549 32.4341 2.50101C32.9135 2.74504 33.295 3.13847 33.5175 3.61837C33.74 4.09826 33.7907 4.63689 33.6614 5.1481C33.5321 5.65931 33.2303 6.11356 32.8043 6.4382C32.3783 6.76283 31.8527 6.93908 31.3116 6.93877Z" fill="white"/>
<path d="M22.0007 39.6261C21.3593 39.6261 20.7441 39.3782 20.2906 38.937C19.8371 38.4957 19.5823 37.8972 19.5823 37.2732V31.5448C19.5823 30.9208 19.8371 30.3223 20.2906 29.881C20.7441 29.4398 21.3593 29.1919 22.0007 29.1919C22.642 29.1919 23.2572 29.4398 23.7107 29.881C24.1642 30.3223 24.419 30.9208 24.419 31.5448V37.2633C24.4204 37.5731 24.3588 37.8801 24.2379 38.1667C24.1169 38.4534 23.939 38.7139 23.7143 38.9334C23.4896 39.153 23.2226 39.3272 22.9285 39.4461C22.6344 39.5649 22.3191 39.6261 22.0007 39.6261Z" fill="white"/>
<path d="M3.33224 50.7154C2.69086 50.7154 2.07574 50.4675 1.62221 50.0262C1.16868 49.585 0.913887 48.9865 0.913887 48.3625C0.913887 47.7384 1.16868 47.14 1.62221 46.6987C2.07574 46.2575 2.69086 46.0096 3.33224 46.0096C6.07713 46.0096 8.021 45.1657 9.11283 43.4978C9.58333 42.7654 9.88451 41.9422 9.99548 41.0853V22.3117C9.99548 14.0914 13.22 12.2349 14.2098 11.8874C14.7748 11.7041 15.3895 11.7301 15.9361 11.9605C16.4826 12.1908 16.9226 12.6093 17.1716 13.1357C17.4207 13.6621 17.4613 14.2595 17.2856 14.8132C17.11 15.367 16.7306 15.8382 16.22 16.1366C16.021 16.3202 14.8373 17.6258 14.8373 22.3117V41.269C14.6893 44.5402 12.0822 50.7154 3.33224 50.7154Z" fill="white"/>
<path d="M31.3322 33.5651C31.0127 33.5644 30.6964 33.5023 30.4016 33.3823C30.1069 33.2623 29.8394 33.0867 29.6146 32.8657C29.3899 32.6447 29.2122 32.3827 29.092 32.0946C28.9717 31.8066 28.9112 31.4982 28.9139 31.1874V19.7703C28.9139 18.2811 28.4904 17.1493 27.6231 16.3452C26.7106 15.5908 25.6019 15.0961 24.419 14.9156V23.6372C24.419 24.2612 24.1642 24.8597 23.7107 25.301C23.2571 25.7422 22.642 25.9901 22.0006 25.9901C21.3593 25.9901 20.7441 25.7422 20.2906 25.301C19.8371 24.8597 19.5823 24.2612 19.5823 23.6372V12.374C19.5809 11.7779 19.8126 11.2035 20.2304 10.7675C20.6483 10.3315 21.2209 10.0664 21.8323 10.0261C22.4037 9.99132 27.4955 9.7878 30.9088 12.9101C32.7557 14.6028 33.7353 16.9756 33.7353 19.7753V31.1874C33.738 31.497 33.678 31.8041 33.5586 32.0912C33.4393 32.3783 33.2631 32.6397 33.0399 32.8605C32.8168 33.0813 32.5511 33.2571 32.2581 33.378C31.9651 33.4989 31.6505 33.5625 31.3322 33.5651Z" fill="white"/>
<path d="M19.5823 64.1681C19.0447 64.169 18.5221 63.9955 18.0971 63.6752C17.6721 63.3548 17.3689 62.9058 17.2355 62.3991C17.1021 61.8924 17.146 61.3569 17.3603 60.8771C17.5747 60.3974 17.9472 60.0009 18.419 59.7502C18.8884 59.497 29.2608 53.7488 29.2608 40.2915C29.2608 39.667 29.5154 39.068 29.9688 38.626C30.4222 38.1839 31.0373 37.9349 31.6792 37.9336H34.0771C34.4044 37.919 34.7313 37.9691 35.0381 38.0809C35.3449 38.1927 35.6253 38.3638 35.8622 38.5839C36.0991 38.8041 36.2877 39.0687 36.4165 39.3618C36.5453 39.6548 36.6118 39.9703 36.6118 40.289C36.6118 40.6078 36.5453 40.9232 36.4165 41.2163C36.2877 41.5093 36.0991 41.7739 35.8622 41.9941C35.6253 42.2143 35.3449 42.3854 35.0381 42.4972C34.7313 42.609 34.4044 42.659 34.0771 42.6444H33.9904C33.6855 46.9588 32.3219 51.1392 30.0138 54.835C27.7057 58.5307 24.5204 61.6342 20.7251 63.8851C20.3743 64.0703 19.9815 64.1676 19.5823 64.1681Z" fill="white"/>
<path d="M31.6791 42.6444H29.6077C29.2805 42.659 28.9535 42.609 28.6467 42.4972C28.3399 42.3854 28.0596 42.2143 27.8227 41.9941C27.5858 41.7739 27.3972 41.5093 27.2684 41.2163C27.1395 40.9232 27.0731 40.6078 27.0731 40.289C27.0731 39.9703 27.1395 39.6548 27.2684 39.3618C27.3972 39.0687 27.5858 38.8041 27.8227 38.5839C28.0596 38.3638 28.3399 38.1927 28.6467 38.0809C28.9535 37.9691 29.2805 37.919 29.6077 37.9336H31.6791C32.302 37.9615 32.8898 38.2218 33.3205 38.6604C33.7511 39.0991 33.9914 39.6824 33.9914 40.289C33.9914 40.8956 33.7511 41.4789 33.3205 41.9176C32.8898 42.3563 32.302 42.6166 31.6791 42.6444Z" fill="white"/>
<path d="M8.16889 59.1249C7.5631 59.1259 6.97897 58.9057 6.53204 58.5078C6.08511 58.11 5.80794 57.5634 5.75535 56.9762C5.70276 56.389 5.87858 55.8041 6.24804 55.337C6.6175 54.8699 7.15368 54.5547 7.75052 54.4538C10.3712 53.8762 12.7755 52.6018 14.6952 50.7726C16.615 48.9433 17.9748 46.6312 18.6229 44.094C18.7833 43.4898 19.1838 42.9722 19.7363 42.6552C20.2889 42.3382 20.9483 42.2478 21.5693 42.4038C22.1904 42.5598 22.7224 42.9495 23.0482 43.4871C23.374 44.0247 23.4669 44.6662 23.3066 45.2705C20.1841 57.0003 9.07705 59.0107 8.56684 59.0901C8.4355 59.1131 8.30233 59.1247 8.16889 59.1249Z" fill="white"/>
<path d="M62.5053 8.68115L62.8523 38.5939L56.2196 38.6683L55.8727 8.75065L62.5053 8.68115Z" fill="white"/>
<path d="M85.4238 38.3507L78.7912 38.4202L78.5055 13.6005C78.5049 13.3594 78.408 13.128 78.2351 12.9552C78.1546 12.8671 78.0555 12.7971 77.9445 12.75C77.8335 12.7028 77.7133 12.6797 77.5923 12.6822L75.0412 12.7119C74.92 12.7097 74.7997 12.734 74.6893 12.7829C74.579 12.8319 74.4813 12.9043 74.4035 12.9949C74.2336 13.1704 74.1419 13.4041 74.1484 13.6452L74.4341 38.4649L67.8015 38.5344L67.5209 14.2607C67.4767 10.1936 69.4188 8.1385 73.3474 8.09548L79.2402 8.03095C83.162 7.98793 85.1483 10.0016 85.1994 14.0721L85.4238 38.3507Z" fill="white"/>
<path d="M107.546 38.107L100.913 38.1815L100.628 13.3618C100.627 13.1207 100.53 12.8892 100.357 12.7165C100.277 12.6282 100.178 12.5584 100.067 12.5121C99.9557 12.4657 99.8353 12.444 99.7145 12.4484L97.1635 12.4732C97.0421 12.4737 96.9223 12.4996 96.8122 12.5493C96.7021 12.599 96.6044 12.6713 96.5257 12.7611C96.3572 12.9375 96.2657 13.1707 96.2706 13.4114L96.5563 38.2311L89.9237 38.3056L89.6431 14.0319C89.5989 9.96148 91.541 7.90641 95.4696 7.8667L101.362 7.80217C105.237 7.75253 107.196 9.75631 107.24 13.8135L107.546 38.107Z" fill="white"/>
<path d="M128.796 15.7993L122.474 15.8688V13.5109C122.471 13.2703 122.375 13.0398 122.204 12.8656C122.123 12.7783 122.024 12.7088 121.913 12.6618C121.802 12.6147 121.682 12.5911 121.561 12.5926L118.944 12.6224C118.823 12.6228 118.703 12.6488 118.593 12.6985C118.483 12.7482 118.385 12.8204 118.306 12.9103C118.138 13.0851 118.047 13.3165 118.051 13.5556L118.112 18.877C118.113 19.1166 118.21 19.3464 118.383 19.5173C118.463 19.6051 118.563 19.6749 118.673 19.7221C118.784 19.7692 118.905 19.7925 119.026 19.7903L123.306 19.7456C127.235 19.7456 129.221 21.7577 129.265 25.7818L129.342 32.2101C129.389 36.2772 127.449 38.3323 123.52 38.3753L117.908 38.4399C113.98 38.4796 111.992 36.4659 111.944 32.3987L111.908 29.3012L118.23 29.2317L118.265 32.5625C118.266 32.8037 118.363 33.0351 118.536 33.2079C118.616 33.2953 118.716 33.3645 118.827 33.4108C118.938 33.4571 119.058 33.4793 119.179 33.4759L122.128 33.4461C122.249 33.4454 122.369 33.4193 122.479 33.3696C122.589 33.3199 122.686 33.2478 122.765 33.1582C122.932 32.9808 123.023 32.7483 123.02 32.5079L122.949 26.6356C122.949 26.3953 122.854 26.1641 122.684 25.9903C122.602 25.9033 122.501 25.8343 122.389 25.7881C122.278 25.7419 122.157 25.7194 122.036 25.7222L117.76 25.7669C113.832 25.8132 111.844 23.8012 111.796 19.7308L111.73 13.774C111.662 9.71683 113.595 7.66507 117.531 7.61874L122.806 7.55917C126.735 7.51946 128.723 9.53316 128.77 13.6003L128.796 15.7993Z" fill="white"/>
<path d="M140.061 7.85693L140.403 37.7696L133.771 37.8441L133.429 7.92643L140.061 7.85693Z" fill="white"/>
<path d="M143.306 13.3173L143.26 7.80232L159.893 7.61865L159.954 13.1237L154.964 13.1733L155.245 37.586L148.612 37.6604L148.332 13.2478L143.306 13.3173Z" fill="white"/>
<path d="M169.852 32.0661L177.219 31.9867L177.28 37.3478L163.265 37.5017L162.918 7.58398L176.939 7.43506L177 12.7018L169.632 12.7862L169.714 19.8102L176.602 19.7357L176.663 24.8237L169.791 24.8982L169.852 32.0661Z" fill="white"/>
<path d="M63.7809 56.5038H62.8625C62.7712 56.5082 62.6811 56.4819 62.6074 56.4294C62.5404 56.3817 62.489 56.3162 62.4595 56.2407L61.638 54.2551H57.7044L56.8829 56.2407C56.8567 56.3138 56.8087 56.3777 56.7452 56.4244C56.6704 56.4791 56.5785 56.5071 56.485 56.5038H55.5666L59.0768 48.2339H60.2758L63.7809 56.5038ZM61.3115 53.446L59.934 50.0904C59.8931 49.9911 59.8472 49.872 59.8013 49.7429C59.7554 49.6139 59.7146 49.4699 59.6738 49.321C59.6023 49.5837 59.5154 49.8423 59.4136 50.0954L58.036 53.446H61.3115Z" fill="white"/>
<path d="M75.8576 52.5327V55.6948C75.4277 55.9925 74.9502 56.2189 74.4443 56.3649C73.9112 56.5185 73.3575 56.5938 72.8015 56.5883C72.1517 56.5965 71.5056 56.4923 70.8933 56.2805C70.353 56.0924 69.8581 55.7984 69.4392 55.4168C69.0349 55.0435 68.7182 54.5897 68.5107 54.0864C68.0854 52.9805 68.0854 51.7623 68.5107 50.6564C68.7072 50.1545 69.0116 49.6993 69.4035 49.3211C69.806 48.9385 70.2854 48.6411 70.8117 48.4474C71.4086 48.238 72.0395 48.1354 72.6739 48.1446C72.9985 48.1414 73.3227 48.1646 73.6433 48.2141C73.9245 48.26 74.2011 48.3298 74.4698 48.4226C74.7136 48.5086 74.9478 48.6184 75.1688 48.7502C75.3843 48.8759 75.5875 49.0204 75.7759 49.1821L75.4392 49.6785C75.3939 49.7522 75.3206 49.8057 75.2351 49.8274C75.187 49.8367 75.1374 49.8367 75.0892 49.8273C75.0411 49.818 74.9953 49.7994 74.9545 49.7728L74.6229 49.5792C74.4761 49.49 74.3206 49.4152 74.1586 49.3558C73.9491 49.2797 73.7343 49.2183 73.5157 49.1721C73.2265 49.1187 72.9325 49.0938 72.6382 49.0977C72.1803 49.0932 71.7255 49.1706 71.2964 49.326C70.9122 49.4689 70.5641 49.6907 70.276 49.9763C69.987 50.2698 69.766 50.6202 69.628 51.0038C69.4692 51.4352 69.3914 51.8909 69.3984 52.3491C69.391 52.8227 69.4722 53.2937 69.6382 53.739C69.7775 54.1307 70.0058 54.4868 70.3061 54.7807C70.6065 55.0746 70.9711 55.2988 71.3729 55.4366C71.8216 55.5911 72.2949 55.6668 72.7708 55.66C73.1374 55.6643 73.5029 55.6208 73.8576 55.531C74.1796 55.443 74.4909 55.3215 74.7861 55.1686V53.3567H73.4188C73.3521 53.3601 73.2865 53.3388 73.2351 53.2972C73.2125 53.277 73.1944 53.2525 73.1821 53.2251C73.1698 53.1978 73.1635 53.1682 73.1637 53.1383V52.5327H75.8576Z" fill="white"/>
<path d="M86.8778 55.5703V56.5035H81.4696V48.2336H86.8726V49.142H82.6584V51.8821H86.0716V52.7558H82.6584V55.5703H86.8778ZM86.2145 47.5684H85.4186C85.3609 47.5746 85.3027 47.5746 85.2451 47.5684C85.1635 47.5419 85.0911 47.4938 85.0359 47.4295L84.3216 46.6154L84.2502 46.5111L84.1737 46.6154L83.4594 47.4295C83.4042 47.4915 83.3341 47.5392 83.2553 47.5684C83.1959 47.5744 83.1361 47.5744 83.0767 47.5684H82.3114L83.7757 46.0098H84.7553L86.2145 47.5684Z" fill="white"/>
<path d="M99.4391 48.2339V56.5038H98.8728C98.7904 56.5064 98.7085 56.4911 98.633 56.4591C98.5611 56.4213 98.4984 56.3688 98.4493 56.3053L93.3473 50.0904C93.3473 50.1847 93.3473 50.279 93.3473 50.3733C93.3473 50.4677 93.3473 50.552 93.3473 50.6315V56.5038H92.3269V48.2339H92.9391H93.0718C93.1073 48.2378 93.1419 48.2479 93.1738 48.2637C93.2044 48.2766 93.2321 48.2952 93.2555 48.3183C93.2886 48.3473 93.3193 48.3788 93.3473 48.4126L98.4238 54.6225C98.4238 54.5232 98.4238 54.4289 98.4238 54.3346C98.4238 54.2403 98.4238 54.1509 98.4238 54.0665V48.2339H99.4391Z" fill="white"/>
<path d="M111.628 54.7762C111.66 54.7762 111.693 54.7828 111.722 54.7957C111.752 54.8085 111.779 54.8272 111.801 54.8507L112.27 55.3471C111.908 55.7401 111.463 56.0518 110.964 56.2605C110.375 56.4936 109.743 56.6052 109.107 56.5881C108.521 56.5947 107.938 56.4901 107.393 56.2803C106.896 56.0859 106.448 55.7916 106.077 55.4166C105.706 55.0337 105.419 54.581 105.235 54.0863C105.03 53.5376 104.928 52.9575 104.934 52.3737C104.926 51.7905 105.031 51.2111 105.245 50.6661C105.441 50.1675 105.74 49.7131 106.123 49.3308C106.508 48.954 106.97 48.6597 107.48 48.4671C108.035 48.2551 108.628 48.1506 109.225 48.1593C109.789 48.1501 110.349 48.2444 110.878 48.4373C111.34 48.6145 111.767 48.87 112.138 49.1918L111.745 49.6882C111.721 49.7253 111.69 49.7574 111.653 49.7825C111.605 49.8085 111.55 49.8205 111.495 49.8173C111.396 49.8073 111.302 49.7694 111.225 49.7081C111.116 49.6319 110.978 49.5476 110.811 49.4549C110.606 49.3521 110.39 49.269 110.168 49.2067C109.859 49.1252 109.54 49.0868 109.219 49.0925C108.793 49.0875 108.371 49.1634 107.975 49.3159C107.608 49.4597 107.278 49.678 107.005 49.9563C106.726 50.2544 106.511 50.6038 106.372 50.9838C106.215 51.4206 106.139 51.8812 106.148 52.3439C106.139 52.8124 106.219 53.2785 106.383 53.7189C106.524 54.0982 106.743 54.446 107.026 54.7415C107.294 55.0184 107.621 55.2353 107.985 55.3769C108.366 55.5263 108.773 55.6005 109.184 55.5953C109.419 55.5984 109.654 55.5851 109.888 55.5556C110.086 55.5292 110.281 55.4827 110.469 55.4166C110.647 55.3586 110.819 55.2821 110.98 55.1882C111.141 55.087 111.295 54.9741 111.439 54.8507C111.491 54.8056 111.558 54.7794 111.628 54.7762Z" fill="white"/>
<path d="M118.633 56.5038H117.444V48.2339H118.633V56.5038Z" fill="white"/>
<path d="M131.796 56.5039H130.878C130.786 56.5092 130.696 56.4828 130.622 56.4294C130.555 56.3818 130.504 56.3163 130.474 56.2408L129.653 54.2552H125.719L124.898 56.2408C124.87 56.3143 124.82 56.3781 124.755 56.4245C124.683 56.48 124.592 56.5082 124.5 56.5039H123.582L127.087 48.2588H128.291L131.796 56.5039ZM129.321 53.4461L127.954 50.0508C127.913 49.9515 127.872 49.8324 127.827 49.7033C127.781 49.5742 127.74 49.4303 127.699 49.2814C127.631 49.543 127.546 49.8001 127.444 50.0508L126.071 53.4014L129.321 53.4461Z" fill="white"/>
<path d="M154.485 48.2339L151.73 56.5038H150.663L148.444 50.2145C148.424 50.1549 148.403 50.0904 148.383 50.0209C148.383 49.9514 148.347 49.877 148.327 49.8025L148.265 50.0209C148.245 50.0904 148.225 50.1549 148.204 50.2145L145.97 56.5038H144.903L142.169 48.2587H143.153C143.249 48.2561 143.343 48.2821 143.424 48.3332C143.491 48.3794 143.538 48.4484 143.556 48.5268L145.373 54.2552C145.398 54.3594 145.429 54.4736 145.454 54.5877C145.48 54.7019 145.505 54.8359 145.531 54.97C145.556 54.8359 145.587 54.7069 145.618 54.5877C145.648 54.4686 145.684 54.3544 145.72 54.2552L147.76 48.5268C147.789 48.4533 147.838 48.3895 147.903 48.3431C147.977 48.2866 148.069 48.2568 148.163 48.2587H148.51C148.602 48.2551 148.691 48.2813 148.765 48.3332C148.83 48.3849 148.881 48.4514 148.913 48.5268L150.954 54.2552C150.99 54.3544 151.026 54.4636 151.056 54.5778C151.087 54.692 151.112 54.8161 151.143 54.9402C151.143 54.8161 151.184 54.692 151.209 54.5778C151.235 54.4636 151.26 54.3544 151.291 54.2552L153.107 48.5268C153.131 48.4512 153.18 48.3852 153.245 48.3381C153.321 48.2854 153.412 48.2576 153.505 48.2587L154.485 48.2339Z" fill="white"/>
<path d="M164.98 55.5706V56.5038H159.587V48.2339H164.99V49.1423H160.77V51.8824H164.179V52.756H160.76V55.5706H164.98Z" fill="white"/>
<path d="M173.229 48.2337C173.698 48.2259 174.166 48.276 174.622 48.3826C174.967 48.4631 175.293 48.6081 175.581 48.8095C175.824 48.9837 176.016 49.2164 176.138 49.4846C176.259 49.7709 176.32 50.0782 176.316 50.388C176.316 50.5859 176.282 50.7823 176.214 50.9688C176.146 51.1597 176.043 51.3365 175.908 51.49C175.765 51.6629 175.592 51.8106 175.398 51.9269C175.173 52.0642 174.929 52.1695 174.673 52.2396C175.213 52.3084 175.72 52.5332 176.127 52.8849C176.291 53.0503 176.419 53.2466 176.502 53.4617C176.586 53.6768 176.623 53.9062 176.612 54.1358C176.617 54.4643 176.547 54.7897 176.408 55.0889C176.269 55.3778 176.065 55.6324 175.811 55.8335C175.522 56.0577 175.191 56.2261 174.837 56.3299C174.412 56.4489 173.972 56.5058 173.53 56.4987H170.433V48.2337H173.229ZM171.612 49.1173V51.9269H173.178C173.473 51.9335 173.766 51.9001 174.051 51.8276C174.272 51.7703 174.48 51.6726 174.663 51.5397C174.82 51.4231 174.943 51.2692 175.02 51.0929C175.102 50.9115 175.142 50.715 175.138 50.5171C175.155 50.3159 175.122 50.1137 175.041 49.9278C174.96 49.7419 174.834 49.5778 174.673 49.4499C174.239 49.1958 173.734 49.0795 173.229 49.1173H171.612ZM173.51 55.5704C173.802 55.5927 174.096 55.5726 174.382 55.5108C174.603 55.4502 174.808 55.3454 174.984 55.2031C175.141 55.0684 175.26 54.8977 175.331 54.7067C175.405 54.5145 175.441 54.3109 175.439 54.106C175.444 53.9151 175.403 53.7256 175.319 53.5531C175.234 53.3805 175.109 53.2298 174.954 53.1133C174.527 52.8357 174.017 52.7046 173.505 52.741H171.607V55.6151L173.51 55.5704Z" fill="white"/>
</svg>
