<svg width="23" height="23" viewBox="0 0 23 23" fill="none" xmlns="http://www.w3.org/2000/svg">
<path d="M5.7054 2.46323C5.62475 2.36176 5.52294 2.27824 5.40674 2.21822C5.29054 2.15819 5.16261 2.12303 5.03145 2.11507C4.90028 2.1071 4.76889 2.12653 4.64599 2.17204C4.52309 2.21755 4.4115 2.28812 4.31864 2.37905L2.90591 3.76193C2.246 4.4086 2.00281 5.32384 2.29109 6.12684C3.48759 9.45054 5.43392 12.4682 7.98571 14.9559C10.5296 17.4513 13.6153 19.3546 17.014 20.5248C17.8352 20.8067 18.7711 20.5689 19.4323 19.9235L20.8451 18.542C20.938 18.4512 21.0102 18.342 21.0567 18.2219C21.1033 18.1017 21.1231 17.9732 21.115 17.8449C21.1069 17.7166 21.0709 17.5915 21.0095 17.4779C20.9481 17.3643 20.8627 17.2647 20.759 17.1858L17.607 14.7889C17.4962 14.7048 17.3672 14.6464 17.23 14.6182C17.0927 14.5899 16.9506 14.5926 16.8146 14.6258L13.8224 15.3567C13.423 15.4543 13.0046 15.4491 12.6079 15.3417C12.2111 15.2342 11.8496 15.0281 11.5585 14.7434L8.20295 11.4606C7.91162 11.1761 7.70061 10.8226 7.59047 10.4346C7.48033 10.0466 7.47481 9.63735 7.57446 9.24666L8.32318 6.32058C8.35721 6.1875 8.35989 6.04859 8.33101 5.91435C8.30214 5.78011 8.24247 5.65403 8.1565 5.54563L5.7054 2.46323ZM3.2871 1.37162C3.52619 1.13774 3.81343 0.956267 4.12974 0.839265C4.44604 0.722263 4.78418 0.672405 5.12171 0.693003C5.45923 0.713601 5.78841 0.804183 6.08739 0.958734C6.38637 1.11329 6.6483 1.32827 6.8558 1.58941L9.3069 4.67048C9.7564 5.23566 9.91489 5.97185 9.73727 6.66663L8.98992 9.59272C8.95128 9.74427 8.95337 9.90302 8.99598 10.0536C9.03859 10.2041 9.12028 10.3413 9.23312 10.4518L12.59 13.7347C12.7032 13.8452 12.8438 13.9252 12.9979 13.9669C13.1521 14.0086 13.3147 14.0105 13.4699 13.9725L16.4607 13.2416C16.8113 13.1559 17.1772 13.1492 17.5309 13.2222C17.8845 13.2951 18.2165 13.4457 18.5019 13.6625L21.6525 16.0595C22.7852 16.9213 22.889 18.558 21.8752 19.5481L20.4625 20.9296C19.4515 21.9183 17.9404 22.3526 16.5317 21.8676C12.9264 20.627 9.65294 18.6086 6.95418 15.962C4.24799 13.3232 2.18399 10.1224 0.915254 6.59715C0.420664 5.22096 0.864702 3.74188 1.87574 2.75316L3.28847 1.37162H3.2871Z" fill="white"/>
</svg>
